<svg xmlns="http://www.w3.org/2000/svg" xml:space="preserve" viewBox="0 0 442.04 442.04" fill="currentColor" width="20" height="16">
  <path d="M221.02 341.3c-49.7 0-103.2-19.44-154.71-56.22-38.5-27.49-62.27-54.73-63.26-55.88a12.5 12.5 0 0 1 0-16.36c1-1.15 24.76-28.4 63.26-55.88 51.5-36.78 105-56.22 154.71-56.22 49.7 0 103.2 19.44 154.71 56.22 38.5 27.49 62.27 54.73 63.26 55.88a12.5 12.5 0 0 1 0 16.36c-1 1.15-24.76 28.39-63.26 55.88-51.5 36.78-105 56.22-154.71 56.22zM29.64 221.02a394.52 394.52 0 0 0 51.7 44.07c32.82 23.36 83.7 51.21 139.68 51.21s106.86-27.85 139.69-51.2a394.55 394.55 0 0 0 51.7-44.08 394.45 394.45 0 0 0-51.7-44.07c-32.83-23.36-83.72-51.21-139.69-51.21s-106.86 27.85-139.69 51.21a394.4 394.4 0 0 0-51.7 44.07z" />
  <path d="M221.02 298.52c-42.73 0-77.5-34.77-77.5-77.5s34.77-77.5 77.5-77.5c18.8 0 36.92 6.82 51.05 19.19a12.5 12.5 0 1 1-16.48 18.8 52.45 52.45 0 0 0-34.57-12.99c-28.95 0-52.5 23.55-52.5 52.5s23.55 52.5 52.5 52.5a52.56 52.56 0 0 0 52.5-52.5 12.5 12.5 0 0 1 25 0c0 42.73-34.77 77.5-77.5 77.5z" />
  <path d="M221.02 246.02c-13.79 0-25-11.21-25-25s11.21-25 25-25 25 11.22 25 25-11.21 25-25 25z" />
</svg>
