<?xml version="1.0" encoding="iso-8859-1"?>
<svg version="1.1" id="Layer_1" xmlns="http://www.w3.org/2000/svg" xmlns:xlink="http://www.w3.org/1999/xlink" x="0px" y="0px" viewBox="0 0 489.7 489.7" xml:space="preserve">
  <path d="M439.15,99L329.75,5.2c-4.2-3.1-8.3-5.2-13.5-5.2H64.05c-11.5,0-20.8,9.4-20.8,20.8v448.1c0,11.5,9.4,20.8,20.8,20.8
     h362.6c10.4,0,19.8-9.4,19.8-19.8V114.6C446.45,108.4,443.35,103.2,439.15,99z M337.05,65.6l43,36.5h-43V65.6z M405.85,449.1
     h-321V41.7h210.5v79.2c0,11.5,9.4,20.8,20.8,20.8h89.6v307.4L405.85,449.1L405.85,449.1z" />
  <path d="M242.35,177.6c-35,0-63.5,28.5-63.5,63.5c0,11,9,20,20,20s20-9,20-20c0-12.9,10.5-23.5,23.5-23.5
       c12.9,0,23.5,10.5,23.5,23.5c0,6.5-2.5,11.2-4.8,14.2c-7.9,7.8-36.1,37.8-36.1,67.6c0,11,9,20,20,20s20-9,20-20
       c0-10.2,14.5-29.7,24.9-39.8c0.5-0.5,1.1-1.1,1.5-1.7c9.4-11.3,14.6-25.7,14.6-40.4C305.75,206.1,277.35,177.6,242.35,177.6z" />
  <circle cx="244.15" cy="379.5" r="25.8" />
</svg>
